<svg width="13" height="12" viewBox="0 0 13 12" fill="none" xmlns="http://www.w3.org/2000/svg">
<g clip-path="url(#clip0_69_192)">
<path fill-rule="evenodd" clip-rule="evenodd" d="M2.18182 0C1.07725 0 0.181824 0.895431 0.181824 2V10C0.181824 11.1046 1.07725 12 2.18182 12H10.1818C11.2864 12 12.1818 11.1046 12.1818 10V2C12.1818 0.895431 11.2864 0 10.1818 0H2.18182ZM7.42703 4.24C7.1017 3.76 6.62436 3.52 5.99503 3.52C5.3657 3.52 4.8857 3.76 4.55503 4.24C4.2297 4.72 4.06703 5.41067 4.06703 6.312C4.06703 7.21867 4.2297 7.91467 4.55503 8.4C4.8857 8.88 5.3657 9.12 5.99503 9.12C6.62436 9.12 7.1017 8.88 7.42703 8.4C7.7577 7.91467 7.92303 7.21867 7.92303 6.312C7.92303 5.41067 7.7577 4.72 7.42703 4.24ZM5.33103 4.76C5.4697 4.45067 5.69103 4.296 5.99503 4.296C6.29903 4.296 6.52036 4.448 6.65903 4.752C6.7977 5.056 6.86703 5.576 6.86703 6.312C6.86703 7.05333 6.7977 7.57867 6.65903 7.888C6.52036 8.192 6.29903 8.344 5.99503 8.344C5.69103 8.344 5.4697 8.18933 5.33103 7.88C5.19236 7.57067 5.12303 7.048 5.12303 6.312C5.12303 5.58133 5.19236 5.064 5.33103 4.76Z" fill="white"/>
</g>
<defs>
<clipPath id="clip0_69_192">
<rect x="0.181824" width="12" height="12" rx="2" fill="white"/>
</clipPath>
</defs>
</svg>
