<svg width="13" height="12" viewBox="0 0 13 12" fill="none" xmlns="http://www.w3.org/2000/svg">
<g clip-path="url(#clip0_69_165)">
<path fill-rule="evenodd" clip-rule="evenodd" d="M0.181824 2C0.181824 0.895431 1.07725 0 2.18182 0H10.1818C11.2864 0 12.1818 0.895431 12.1818 2V10C12.1818 11.1046 11.2864 12 10.1818 12H2.18182C1.07725 12 0.181824 11.1046 0.181824 10V2ZM8.51104 4.352C8.87371 4.352 9.19371 4.408 9.47104 4.52C9.75371 4.62667 10.0204 4.78667 10.271 5L9.70304 5.592C9.50571 5.43733 9.31904 5.32533 9.14304 5.256C8.97238 5.18667 8.77238 5.152 8.54304 5.152C8.11638 5.152 7.76704 5.32267 7.49504 5.664C7.22304 6.00533 7.08704 6.528 7.08704 7.232C7.08704 7.968 7.19371 8.49867 7.40704 8.824C7.62571 9.14933 7.95638 9.312 8.39904 9.312C8.73504 9.312 9.02838 9.24 9.27904 9.096V7.656H8.44704L8.33504 6.872H10.319V9.576C9.72171 9.93867 9.08704 10.12 8.41504 10.12C7.62571 10.12 7.02038 9.87467 6.59904 9.384C6.18304 8.89333 5.97504 8.176 5.97504 7.232C5.97504 6.62933 6.08704 6.112 6.31104 5.68C6.54038 5.24267 6.84704 4.912 7.23104 4.688C7.61504 4.464 8.04171 4.352 8.51104 4.352ZM4.45448 1.72C4.19315 1.58667 3.88115 1.52 3.51848 1.52C2.80915 1.52 2.22781 1.81333 1.77448 2.4L2.39848 2.896C2.56915 2.69333 2.73181 2.54933 2.88648 2.464C3.04648 2.37333 3.23048 2.328 3.43848 2.328C3.67315 2.328 3.85981 2.39733 3.99848 2.536C4.14248 2.67467 4.21448 2.86667 4.21448 3.112C4.21448 3.368 4.15048 3.616 4.02248 3.856C3.89981 4.09067 3.68915 4.376 3.39048 4.712C3.09715 5.04267 2.60915 5.55467 1.92648 6.248V7H5.27848L5.39048 6.192H3.08648C3.67315 5.632 4.11848 5.18133 4.42248 4.84C4.72648 4.49867 4.94248 4.18933 5.07048 3.912C5.20381 3.62933 5.27048 3.336 5.27048 3.032C5.27048 2.74933 5.20115 2.49333 5.06248 2.264C4.92381 2.03467 4.72115 1.85333 4.45448 1.72Z" fill="white"/>
</g>
<defs>
<clipPath id="clip0_69_165">
<rect x="0.181824" width="12" height="12" rx="2" fill="white"/>
</clipPath>
</defs>
</svg>
