<svg width="13" height="12" viewBox="0 0 13 12" fill="none" xmlns="http://www.w3.org/2000/svg">
<g clip-path="url(#clip0_69_58)">
<path fill-rule="evenodd" clip-rule="evenodd" d="M0.181824 2C0.181824 0.895431 1.07725 0 2.18182 0H10.1818C11.2864 0 12.1818 0.895431 12.1818 2V10C12.1818 11.1046 11.2864 12 10.1818 12H2.18182C1.07725 12 0.181824 11.1046 0.181824 10V2ZM8.51104 4.352C8.87371 4.352 9.19371 4.408 9.47104 4.52C9.75371 4.62667 10.0204 4.78667 10.271 5L9.70304 5.592C9.50571 5.43733 9.31904 5.32533 9.14304 5.256C8.97238 5.18667 8.77238 5.152 8.54304 5.152C8.11638 5.152 7.76704 5.32267 7.49504 5.664C7.22304 6.00533 7.08704 6.528 7.08704 7.232C7.08704 7.968 7.19371 8.49867 7.40704 8.824C7.62571 9.14933 7.95638 9.312 8.39904 9.312C8.73504 9.312 9.02838 9.24 9.27904 9.096V7.656H8.44704L8.33504 6.872H10.319V9.576C9.72171 9.93867 9.08704 10.12 8.41504 10.12C7.62571 10.12 7.02038 9.87467 6.59904 9.384C6.18304 8.89333 5.97504 8.176 5.97504 7.232C5.97504 6.62933 6.08704 6.112 6.31104 5.68C6.54038 5.24267 6.84704 4.912 7.23104 4.688C7.61504 4.464 8.04171 4.352 8.51104 4.352ZM4.41876 1.704C4.16276 1.58133 3.85609 1.52 3.49876 1.52C2.85876 1.52 2.29609 1.74933 1.81076 2.208L2.33076 2.776C2.50143 2.616 2.67209 2.49867 2.84276 2.424C3.01343 2.344 3.20276 2.304 3.41076 2.304C3.65076 2.304 3.84276 2.368 3.98676 2.496C4.13076 2.61867 4.20276 2.78933 4.20276 3.008C4.20276 3.264 4.12276 3.464 3.96276 3.608C3.80809 3.752 3.60009 3.824 3.33876 3.824H3.05076L2.93076 4.552H3.35476C3.67476 4.552 3.91476 4.61867 4.07476 4.752C4.24009 4.88533 4.32276 5.10667 4.32276 5.416C4.32276 5.69333 4.23476 5.91467 4.05876 6.08C3.88809 6.24 3.65876 6.32 3.37076 6.32C3.15743 6.32 2.96276 6.28 2.78676 6.2C2.61076 6.11467 2.43209 5.98133 2.25076 5.8L1.68276 6.344C2.10943 6.86133 2.69076 7.12 3.42676 7.12C3.82676 7.12 4.17343 7.048 4.46676 6.904C4.76009 6.75467 4.98409 6.55467 5.13876 6.304C5.29876 6.05333 5.37876 5.77333 5.37876 5.464C5.37876 5.06933 5.26409 4.76 5.03476 4.536C4.80543 4.312 4.51209 4.184 4.15476 4.152C4.48009 4.06667 4.73609 3.91733 4.92276 3.704C5.10943 3.48533 5.20276 3.21333 5.20276 2.888C5.20276 2.63733 5.13609 2.408 5.00276 2.2C4.87476 1.992 4.68009 1.82667 4.41876 1.704Z" fill="white"/>
</g>
<defs>
<clipPath id="clip0_69_58">
<rect x="0.181824" width="12" height="12" rx="2" fill="white"/>
</clipPath>
</defs>
</svg>
