<svg width="13" height="12" viewBox="0 0 13 12" fill="none" xmlns="http://www.w3.org/2000/svg">
<g clip-path="url(#clip0_69_51)">
<path fill-rule="evenodd" clip-rule="evenodd" d="M0.181816 2C0.181816 0.895431 1.07725 0 2.18182 0H10.1818C11.2864 0 12.1818 0.895431 12.1818 2V10C12.1818 11.1046 11.2864 12 10.1818 12H2.18182C1.07725 12 0.181816 11.1046 0.181816 10V2ZM8.51103 4.352C8.8737 4.352 9.1937 4.408 9.47104 4.52C9.7537 4.62667 10.0204 4.78667 10.271 5L9.70304 5.592C9.5057 5.43733 9.31903 5.32533 9.14303 5.256C8.97237 5.18667 8.77237 5.152 8.54304 5.152C8.11637 5.152 7.76704 5.32267 7.49504 5.664C7.22303 6.00533 7.08704 6.528 7.08704 7.232C7.08704 7.968 7.1937 8.49867 7.40703 8.824C7.6257 9.14933 7.95637 9.312 8.39903 9.312C8.73503 9.312 9.02837 9.24 9.27904 9.096V7.656H8.44703L8.33504 6.872H10.319V9.576C9.7217 9.93867 9.08704 10.12 8.41504 10.12C7.6257 10.12 7.02037 9.87467 6.59903 9.384C6.18303 8.89333 5.97503 8.176 5.97503 7.232C5.97503 6.62933 6.08703 6.112 6.31103 5.68C6.54037 5.24267 6.84703 4.912 7.23103 4.688C7.61504 4.464 8.0417 4.352 8.51103 4.352ZM5.6826 5.768V4.984H5.0346V3.632H4.1466L4.0426 4.984H2.8106L4.1866 1.84L3.3146 1.512L1.7466 5.064V5.768H4.0346V7H5.0346V5.768H5.6826Z" fill="white"/>
</g>
<defs>
<clipPath id="clip0_69_51">
<rect x="0.181816" width="12" height="12" rx="2" fill="white"/>
</clipPath>
</defs>
</svg>
