<svg width="20" height="20" viewBox="0 0 20 20" fill="none" xmlns="http://www.w3.org/2000/svg">
<path d="M4.87744 15.1234L1.19515 13.6825L1.60071 13.277L4.38292 13.9725L4.65756 14.0412L4.85774 13.841L9.82513 8.87363L10.2976 8.40111L9.711 8.08113L1.89129 3.81583L2.72284 2.98428L11.977 6.31577L12.2755 6.42325L12.4999 6.19888L16.512 2.18676C16.7401 1.9587 17.092 1.79647 17.4517 1.75931C17.8117 1.72212 18.1075 1.81466 18.2886 1.9957C18.4696 2.17675 18.5622 2.47261 18.525 2.83262C18.4878 3.19231 18.3256 3.54424 18.0975 3.77229L14.0854 7.78441L13.861 8.00878L13.9685 8.30733L17.3 17.5614L16.4685 18.393L12.2032 10.5733L11.8832 9.98665L11.4107 10.4592L6.44327 15.4265L6.24309 15.6267L6.31175 15.9014L7.00731 18.6836L6.60175 19.0891L5.16086 15.4068L5.08115 15.2031L4.87744 15.1234Z" stroke="white"/>
</svg>
