<svg width="25" height="25" viewBox="0 0 25 25" fill="none" xmlns="http://www.w3.org/2000/svg">
<path d="M0.5 7.75H6.25H11.7939L10.1213 12.5H0.5V7.75ZM11.1815 12.5L12.854 7.75H18.0439L16.3713 12.5H11.1815ZM17.4315 12.5L19.104 7.75H24.5V12.5H17.4315ZM24.5 6.75H18.75H12.5H6.25H0.5V1.5C0.5 1.26019 0.500271 1.10537 0.508355 0.98688C0.516133 0.872881 0.529442 0.829465 0.53806 0.808658C0.588807 0.686144 0.686144 0.588807 0.808658 0.53806C0.829465 0.529442 0.872881 0.516133 0.98688 0.508355C1.10537 0.500271 1.26019 0.5 1.5 0.5H6.25H12.5H18.75H23.5C23.7398 0.5 23.8946 0.500271 24.0131 0.508355C24.1271 0.516133 24.1705 0.529442 24.1913 0.53806C24.3139 0.588807 24.4112 0.686144 24.4619 0.808658C24.4706 0.829465 24.4839 0.872881 24.4916 0.98688C24.4997 1.10537 24.5 1.26019 24.5 1.5V6.75ZM17.0794 13.5H24.5V18.5H15.3188L17.0794 13.5ZM14.9667 19.5H24.5V23.5C24.5 23.7398 24.4997 23.8946 24.4916 24.0131C24.4839 24.1271 24.4706 24.1705 24.4619 24.1913C24.4112 24.3139 24.3139 24.4112 24.1913 24.4619C24.1705 24.4706 24.1271 24.4839 24.0131 24.4916C23.8946 24.4997 23.7398 24.5 23.5 24.5H18.75H13.2061L14.9667 19.5ZM13.9065 19.5L12.146 24.5H6.95615L8.71671 19.5H13.9065ZM7.65653 19.5L5.89597 24.5H1.5C1.26019 24.5 1.10537 24.4997 0.98688 24.4916C0.872881 24.4839 0.829465 24.4706 0.808658 24.4619C0.686144 24.4112 0.588807 24.3139 0.538061 24.1913C0.529442 24.1705 0.516133 24.1271 0.508355 24.0131C0.500271 23.8946 0.5 23.7398 0.5 23.5V19.5H7.65653ZM8.00864 18.5H0.5V13.5H9.76921L8.00864 18.5ZM9.06882 18.5L10.8294 13.5H16.0192L14.2586 18.5H9.06882Z" stroke="white"/>
</svg>
