<svg width="25" height="25" viewBox="0 0 25 25" fill="none" xmlns="http://www.w3.org/2000/svg">
<path d="M1.5 1H6.25H12.5H18.75H23.5C23.7467 1 23.8816 1.00054 23.9791 1.0072C23.9836 1.0075 23.9879 1.00782 23.9919 1.00813C23.9922 1.01212 23.9925 1.01638 23.9928 1.02092C23.9995 1.11844 24 1.25335 24 1.5V7.25V13V19V23.5C24 23.7467 23.9995 23.8816 23.9928 23.9791C23.9925 23.9836 23.9922 23.9879 23.9919 23.9919C23.9879 23.9922 23.9836 23.9925 23.9791 23.9928C23.8816 23.9995 23.7467 24 23.5 24H18.75H12.5H6.25H1.5C1.25335 24 1.11844 23.9995 1.02092 23.9928C1.01638 23.9925 1.01213 23.9922 1.00814 23.9919C1.00782 23.9879 1.0075 23.9836 1.0072 23.9791C1.00054 23.8816 1 23.7467 1 23.5V19V13V7.25V1.5C1 1.25335 1.00054 1.11844 1.0072 1.02092C1.0075 1.01638 1.00782 1.01212 1.00813 1.00813C1.01212 1.00782 1.01638 1.0075 1.02092 1.0072C1.11844 1.00054 1.25335 1 1.5 1Z" stroke="black" stroke-width="2"/>
</svg>
