<svg width="26" height="26" viewBox="0 0 26 26" fill="none" xmlns="http://www.w3.org/2000/svg">
<path d="M1.5 3.5C1.5 3.02038 1.50054 2.71074 1.51671 2.47376C1.53227 2.24576 1.55888 2.15893 1.57612 2.11732C1.67761 1.87229 1.87229 1.67761 2.11732 1.57612C2.15893 1.55888 2.24576 1.53227 2.47376 1.51671C2.71074 1.50054 3.02038 1.5 3.5 1.5H22.5C22.9796 1.5 23.2893 1.50054 23.5262 1.51671C23.7542 1.53227 23.8411 1.55888 23.8827 1.57612C24.1277 1.67761 24.3224 1.87229 24.4239 2.11732C24.4411 2.15893 24.4677 2.24576 24.4833 2.47376C24.4995 2.71074 24.5 3.02038 24.5 3.5V19.5C24.5 20.4456 24.4995 21.1047 24.4643 21.6206C24.4297 22.1275 24.365 22.4227 24.2716 22.6481C23.9672 23.3831 23.3831 23.9672 22.6481 24.2716C22.4227 24.365 22.1275 24.4297 21.6206 24.4643C21.1047 24.4995 20.4456 24.5 19.5 24.5H6.5C5.55443 24.5 4.89534 24.4995 4.37945 24.4643C3.87254 24.4297 3.57733 24.365 3.35195 24.2716C2.61687 23.9672 2.03284 23.3831 1.72836 22.6481C1.635 22.4227 1.57033 22.1275 1.53574 21.6206C1.50054 21.1047 1.5 20.4456 1.5 19.5V3.5Z" stroke="black" stroke-width="2"/>
<path d="M16.1414 19.612C15.8894 19.612 15.6001 19.598 15.2734 19.57C14.9467 19.5513 14.6107 19.5233 14.2654 19.486C13.9201 19.4487 13.5934 19.4067 13.2854 19.36V18.394C13.5747 18.422 13.8781 18.45 14.1954 18.478C14.5127 18.506 14.8207 18.5293 15.1194 18.548C15.4181 18.5667 15.6747 18.576 15.8894 18.576C16.5427 18.576 17.0607 18.5293 17.4434 18.436C17.8354 18.3427 18.1294 18.17 18.3254 17.918C18.5214 17.666 18.6474 17.302 18.7034 16.826C18.7687 16.3407 18.8014 15.706 18.8014 14.922H18.7174C18.6241 15.034 18.4841 15.146 18.2974 15.258C18.1107 15.3607 17.8354 15.4493 17.4714 15.524C17.1074 15.5893 16.6221 15.622 16.0154 15.622C15.4274 15.622 14.9234 15.5893 14.5034 15.524C14.0927 15.4587 13.7567 15.3327 13.4954 15.146C13.2341 14.9593 13.0427 14.6887 12.9214 14.334C12.8094 13.9793 12.7534 13.508 12.7534 12.92C12.7534 12.304 12.7954 11.7907 12.8794 11.38C12.9727 10.9693 13.1407 10.6473 13.3834 10.414C13.6354 10.1807 13.9901 10.0127 14.4474 9.91C14.9047 9.80733 15.5021 9.756 16.2394 9.756C16.9114 9.756 17.4807 9.78867 17.9474 9.854C18.4141 9.91933 18.7921 10.0593 19.0814 10.274C19.3707 10.4793 19.5854 10.806 19.7254 11.254C19.8467 11.6087 19.9261 12.0613 19.9634 12.612C20.0007 13.1533 20.0194 13.8113 20.0194 14.586C20.0194 15.1273 20.0054 15.6173 19.9774 16.056C19.9587 16.4947 19.9167 16.8867 19.8514 17.232C19.7954 17.568 19.7114 17.8713 19.5994 18.142C19.4407 18.5247 19.2121 18.8233 18.9134 19.038C18.6241 19.2527 18.2507 19.402 17.7934 19.486C17.3454 19.57 16.7947 19.612 16.1414 19.612ZM16.3514 14.586C16.9021 14.586 17.3407 14.558 17.6674 14.502C17.9941 14.446 18.2321 14.3573 18.3814 14.236C18.5401 14.1053 18.6427 13.942 18.6894 13.746C18.7361 13.55 18.7594 13.312 18.7594 13.032C18.7594 12.5187 18.7174 12.1127 18.6334 11.814C18.5587 11.5153 18.4327 11.2913 18.2554 11.142C18.0781 10.9927 17.8307 10.8993 17.5134 10.862C17.2054 10.8153 16.8181 10.792 16.3514 10.792C15.8567 10.792 15.4507 10.8107 15.1334 10.848C14.8254 10.8853 14.5827 10.9693 14.4054 11.1C14.2281 11.2213 14.1021 11.4033 14.0274 11.646C13.9621 11.8887 13.9294 12.2247 13.9294 12.654C13.9294 13.102 13.9621 13.4567 14.0274 13.718C14.1021 13.9793 14.2234 14.1753 14.3914 14.306C14.5594 14.4273 14.8021 14.5067 15.1194 14.544C15.4367 14.572 15.8474 14.586 16.3514 14.586Z" fill="black"/>
<path d="M8.38816 16.5V8.24L6.40016 9.206V8.128L8.73816 6.868H9.59216V16.5H8.38816Z" fill="black"/>
</svg>
