<svg width="25" height="25" viewBox="0 0 25 25" fill="none" xmlns="http://www.w3.org/2000/svg">
<path d="M1 8.25H6.25H11.0877L9.76728 12H1V8.25ZM11.8876 12L13.2081 8.25H17.3377L16.0173 12H11.8876ZM18.1376 12L19.4581 8.25H24V12H18.1376ZM24 6.25H18.75H12.5H6.25H1V1.5C1 1.25335 1.00054 1.11844 1.0072 1.02092C1.0075 1.01638 1.00782 1.01212 1.00813 1.00813C1.01212 1.00782 1.01638 1.0075 1.02092 1.0072C1.11844 1.00054 1.25335 1 1.5 1H6.25H12.5H18.75H23.5C23.7467 1 23.8816 1.00054 23.9791 1.0072C23.9836 1.0075 23.9879 1.00782 23.9919 1.00813C23.9922 1.01212 23.9925 1.01638 23.9928 1.02092C23.9995 1.11844 24 1.25335 24 1.5V6.25ZM17.4334 14H24V18H16.025L17.4334 14ZM15.3207 20H24V23.5C24 23.7467 23.9995 23.8816 23.9928 23.9791C23.9925 23.9836 23.9922 23.9879 23.9919 23.9919C23.9879 23.9922 23.9836 23.9925 23.9791 23.9928C23.8816 23.9995 23.7467 24 23.5 24H18.75H13.9123L15.3207 20ZM13.2004 20L11.7919 24H7.66229L9.07074 20H13.2004ZM6.95038 20L5.54193 24H1.5C1.25335 24 1.11844 23.9995 1.02092 23.9928C1.01638 23.9925 1.01213 23.9922 1.00814 23.9919C1.00782 23.9879 1.0075 23.9836 1.0072 23.9791C1.00054 23.8816 1 23.7467 1 23.5V20H6.95038ZM7.65461 18H1V14H9.06306L7.65461 18ZM9.77497 18L11.1834 14H15.3131L13.9046 18H9.77497Z" stroke="black" stroke-width="2"/>
</svg>
