<svg width="25" height="25" viewBox="0 0 25 25" fill="none" xmlns="http://www.w3.org/2000/svg">
<path d="M1.5 0.5H6.25H12.5H18.75H23.5C23.7398 0.5 23.8946 0.500271 24.0131 0.508355C24.1271 0.516133 24.1705 0.529442 24.1913 0.53806C24.3139 0.588807 24.4112 0.686144 24.4619 0.808658C24.4706 0.829465 24.4839 0.872881 24.4916 0.98688C24.4997 1.10537 24.5 1.26019 24.5 1.5V7.25V13V19V23.5C24.5 23.7398 24.4997 23.8946 24.4916 24.0131C24.4839 24.1271 24.4706 24.1705 24.4619 24.1913C24.4112 24.3139 24.3139 24.4112 24.1913 24.4619C24.1705 24.4706 24.1271 24.4839 24.0131 24.4916C23.8946 24.4997 23.7398 24.5 23.5 24.5H18.75H12.5H6.25H1.5C1.26019 24.5 1.10537 24.4997 0.98688 24.4916C0.872881 24.4839 0.829465 24.4706 0.808658 24.4619C0.686144 24.4112 0.588807 24.3139 0.538061 24.1913C0.529442 24.1705 0.516133 24.1271 0.508355 24.0131C0.500271 23.8946 0.5 23.7398 0.5 23.5V19V13V7.25V1.5C0.5 1.26019 0.500271 1.10537 0.508355 0.98688C0.516133 0.872881 0.529442 0.829465 0.53806 0.808658C0.588807 0.686144 0.686144 0.588807 0.808658 0.53806C0.829465 0.529442 0.872881 0.516133 0.98688 0.508355C1.10537 0.500271 1.26019 0.5 1.5 0.5Z" stroke="white"/>
</svg>
