<svg width="21" height="20" viewBox="0 0 21 20" fill="none" xmlns="http://www.w3.org/2000/svg">
<path d="M3.5 15.5V0.5H10.4164L13.5 3.41537V15.5H3.5Z" stroke="white"/>
<path d="M3.71079 9.70895L6.00456 8.08245C6.1991 7.9445 6.46399 7.96315 6.63728 8.12699L8.57957 9.96334L9.70806 11.0303C10.2058 11.5008 10.959 11.5745 11.5384 11.2093L13.26 10.1241C13.285 10.1084 13.3139 10.1 13.3435 10.1C13.4299 10.1 13.5 10.1701 13.5 10.2565V15C13.5 15.2762 13.2761 15.5 13 15.5H4C3.72386 15.5 3.5 15.2762 3.5 15V10.1168C3.5 9.95473 3.57857 9.8027 3.71079 9.70895Z" fill="white" stroke="white"/>
<mask id="path-3-inside-1_108_38" fill="white">
<path d="M20 20H9V17H10V19H19V7.2L16.5 5H15V4H16.6154L20 7.2V20Z"/>
</mask>
<path d="M9 20H8V21H9V20ZM20 20V21H21V20H20ZM20 7.2H21V6.76927L20.687 6.47335L20 7.2ZM16.6154 4L17.3024 3.27335L17.0133 3H16.6154V4ZM15 4V3H14V4H15ZM9 17V16H8V17H9ZM10 17H11V16H10V17ZM10 19H9V20H10V19ZM19 19V20H20V19H19ZM19 7.2H20V6.74793L19.6606 6.44929L19 7.2ZM16.5 5L17.1606 4.24929L16.8773 4H16.5V5ZM15 5H14V6H15V5ZM9 21H20V19H9V21ZM19 7.2V20H21V7.2H19ZM15.9284 4.72665L19.313 7.92665L20.687 6.47335L17.3024 3.27335L15.9284 4.72665ZM16.6154 3H15V5H16.6154V3ZM8 17V20H10V17H8ZM9 18H10V16H9V18ZM9 17V19H11V17H9ZM10 20H19V18H10V20ZM20 19V7.2H18V19H20ZM19.6606 6.44929L17.1606 4.24929L15.8394 5.75071L18.3394 7.95071L19.6606 6.44929ZM16.5 4H15V6H16.5V4ZM16 5V4H14V5H16Z" fill="white" mask="url(#path-3-inside-1_108_38)"/>
<path d="M9.71079 13.7089L12.0046 12.0824C12.1991 11.9445 12.464 11.9631 12.6373 12.127L14.5796 13.9633L15.7081 15.0303C16.2058 15.5008 16.959 15.5745 17.5384 15.2092L19.26 14.1241C19.285 14.1084 19.3139 14.1 19.3435 14.1C19.4299 14.1 19.5 14.1701 19.5 14.2565V19C19.5 19.2761 19.2761 19.5 19 19.5H10C9.72386 19.5 9.5 19.2761 9.5 19V14.1168C9.5 13.9547 9.57857 13.8027 9.71079 13.7089Z" stroke="white"/>
</svg>
