<svg width="26" height="26" viewBox="0 0 26 26" fill="none" xmlns="http://www.w3.org/2000/svg">
<path d="M24.5 24.4968C21.0984 24.553 17.8658 23.8593 14.9565 22.57L15.4454 21.9613L18.6137 18.0166L24.5 18.698V24.4968ZM3.83829 11.914C5.93625 15.9689 10.056 20.0727 14.0947 22.166C9.65282 19.9684 6.03779 16.3548 3.83829 11.914ZM4.03567 10.557L3.43127 11.0463C2.1412 8.13628 1.447 4.90267 1.5032 1.5H7.3024L7.98342 7.36122L4.03567 10.557ZM12.6099 9.83406H13.3879V10.6121H12.6099V9.83406ZM18.1659 9.83406H18.944V10.6121H18.1659V9.83406ZM23.722 9.83406H24.5V10.6121H23.722V9.83406Z" stroke="black" stroke-width="2"/>
</svg>
