<svg width="21" height="20" viewBox="0 0 21 20" fill="none" xmlns="http://www.w3.org/2000/svg">
<path d="M4.5 19.5V0.5H12.7929L16.5 4.20711V19.5H4.5Z" stroke="white"/>
<path d="M4.7 12.1L7.60616 9.92038C7.80522 9.77108 8.08377 9.79088 8.25972 9.96682L10.6464 12.3536L12.0668 13.7739C12.5724 14.2795 13.3645 14.3579 13.9595 13.9613L16.084 12.5449C16.1279 12.5156 16.1796 12.5 16.2324 12.5C16.3802 12.5 16.5 12.6198 16.5 12.7676V19C16.5 19.2761 16.2761 19.5 16 19.5H5C4.72386 19.5 4.5 19.2761 4.5 19V12.5C4.5 12.3426 4.5741 12.1944 4.7 12.1Z" fill="white" stroke="white"/>
</svg>
