<svg width="13" height="12" viewBox="0 0 13 12" fill="none" xmlns="http://www.w3.org/2000/svg">
<g clip-path="url(#clip0_69_138)">
<path fill-rule="evenodd" clip-rule="evenodd" d="M0.181824 2C0.181824 0.895431 1.07725 0 2.18182 0H10.1818C11.2864 0 12.1818 0.895431 12.1818 2V10C12.1818 11.1046 11.2864 12 10.1818 12H2.18182C1.07725 12 0.181824 11.1046 0.181824 10V2ZM9.26878 6.72V7.944H10.4608V8.752H9.26878V9.976H8.38878V8.752H7.20478V7.944H8.38878V6.72H9.26878ZM4.77996 5.528V8H5.84396V2.472H4.77996V4.688H2.81196V2.472H1.75596V8H2.81196V5.528H4.77996Z" fill="white"/>
</g>
<defs>
<clipPath id="clip0_69_138">
<rect x="0.181824" width="12" height="12" rx="2" fill="white"/>
</clipPath>
</defs>
</svg>
