<svg width="20" height="20" viewBox="0 0 20 20" fill="none" xmlns="http://www.w3.org/2000/svg">
<path d="M9.75862 10L4.2019 2.60049C3.7069 1.94133 4.17721 1 5.00153 1H14.9119C15.7517 1 16.2175 1.97257 15.691 2.62688L9.75862 10ZM9.75862 10L4.2019 17.3995C3.7069 18.0587 4.17721 19 5.00153 19H14.9119C15.7517 19 16.2175 18.0274 15.691 17.3731L9.75862 10Z" stroke="black"/>
<path d="M7.5 6.99235L9.75862 10L12.1786 6.99235L10.1567 7.83425C9.90261 7.94004 9.61618 7.93645 9.36485 7.82432L7.5 6.99235Z" fill="black"/>
<path d="M4.2019 17.3995C3.7069 18.0587 4.17721 19 5.00153 19H14.9119C15.7517 19 16.2175 18.0274 15.691 17.3731L13.3793 14.5L5.62835 15.5L4.2019 17.3995Z" fill="black"/>
<path d="M9.75862 10L7.5 6.99235M9.75862 10L12.1786 6.99235M9.75862 10L5.62835 15.5M9.75862 10L13.3793 14.5M7.5 6.99235L4.2019 2.60049C3.7069 1.94133 4.17721 1 5.00153 1H14.9119C15.7517 1 16.2175 1.97257 15.691 2.62688L12.1786 6.99235M7.5 6.99235L9.36485 7.82432C9.61618 7.93645 9.90261 7.94004 10.1567 7.83425L12.1786 6.99235M5.62835 15.5L4.2019 17.3995C3.7069 18.0587 4.17721 19 5.00153 19H14.9119C15.7517 19 16.2175 18.0274 15.691 17.3731L13.3793 14.5M5.62835 15.5L13.3793 14.5" stroke="black"/>
</svg>
