<svg width="28" height="22" viewBox="0 0 28 22" fill="none" xmlns="http://www.w3.org/2000/svg">
<g clip-path="url(#clip0_1_32)">
<path d="M26.1667 10.9474C26.1667 12.6023 25.0151 14.2542 23.1063 15.8095C22.2281 16.525 20.4236 17.5922 18.5164 18.6226C17.2889 19.2859 16.059 19.9125 15.0784 20.3907C15.0864 20.3682 15.0944 20.3455 15.1025 20.3225C15.1508 20.1863 15.2018 20.0423 15.2548 19.8905C15.4977 19.1958 15.7881 18.324 15.8377 17.6023C15.862 17.2494 15.8449 16.7529 15.5719 16.3169C15.2449 15.7946 14.704 15.5848 14.1667 15.5848C13.7239 15.5848 13.2894 15.5863 12.8634 15.5877C11.5414 15.5923 10.3007 15.5966 9.14258 15.5548C7.61162 15.4995 6.30412 15.3649 5.24198 15.0698C4.1865 14.7766 3.44836 14.3456 2.96527 13.7494C2.48867 13.1612 2.16669 12.2962 2.16669 10.9474C2.16669 5.60774 7.37135 1 14.1667 1C20.962 1 26.1667 5.60774 26.1667 10.9474Z" stroke="black" stroke-width="2"/>
<circle cx="20.1667" cy="9" r="1" stroke="black" stroke-width="2"/>
<circle cx="14.1667" cy="9" r="1" stroke="black" stroke-width="2"/>
<circle cx="8.16669" cy="9" r="1" stroke="black" stroke-width="2"/>
</g>
<defs>
<clipPath id="clip0_1_32">
<rect width="27" height="22" fill="white" transform="translate(0.5)"/>
</clipPath>
</defs>
</svg>
