<svg width="28" height="22" viewBox="0 0 28 22" fill="none" xmlns="http://www.w3.org/2000/svg">
<g clip-path="url(#clip0_1_32)">
<path d="M14.1667 16.0848C13.7286 16.0848 13.2971 16.0863 12.8728 16.0877C11.5481 16.0923 10.2934 16.0967 9.12454 16.0545C7.58141 15.9988 6.22734 15.8625 5.10814 15.5516C3.99227 15.2416 3.14724 14.7682 2.57678 14.0641C2.00956 13.3641 1.66669 12.3776 1.66669 10.9474C1.66669 5.25453 7.17917 0.5 14.1667 0.5C21.1542 0.5 26.6667 5.25453 26.6667 10.9474C26.6667 12.8357 25.3624 14.6162 23.4221 16.1971C22.5021 16.9467 20.6571 18.0344 18.7541 19.0625C17.027 19.9957 15.2921 20.8585 14.2423 21.3422C14.3234 21.0233 14.4699 20.6101 14.6383 20.1351C14.6851 20.0031 14.7336 19.8663 14.7828 19.7255C15.0299 19.0189 15.2947 18.211 15.3389 17.568C15.3607 17.2505 15.3368 16.8836 15.1482 16.5823C14.9324 16.2378 14.573 16.0848 14.1667 16.0848ZM14.1812 21.7288C14.1812 21.7289 14.1809 21.7274 14.1806 21.7239C14.1811 21.727 14.1813 21.7287 14.1812 21.7288Z" stroke="white"/>
<circle cx="20.1667" cy="9" r="1.5" stroke="white"/>
<circle cx="14.1667" cy="9" r="1.5" stroke="white"/>
<circle cx="8.16669" cy="9" r="1.5" stroke="white"/>
</g>
<defs>
<clipPath id="clip0_1_32">
<rect width="27" height="22" fill="white" transform="translate(0.5)"/>
</clipPath>
</defs>
</svg>
