<svg width="24" height="20" viewBox="0 0 24 20" fill="none" xmlns="http://www.w3.org/2000/svg">
<path d="M7.76923 14L6.32833 10.9129C5.70943 9.58696 6.67734 8.06703 8.14064 8.06703H11.4615H14.2308H17M17 8.06703L14.2308 10.7668M17 8.06703L14.2308 5" stroke="white"/>
<g clip-path="url(#clip0_105_16)">
<path d="M1.5 9.95695C1.5 11.4623 2.5275 12.896 4.08768 14.1837C4.82273 14.7904 6.3051 15.6763 7.84287 16.5179C9.13727 17.2263 10.4365 17.8849 11.2923 18.2913C11.2259 18.0689 11.1332 17.804 11.0289 17.506C10.9909 17.3973 10.9513 17.2842 10.9109 17.1672C10.712 16.591 10.4938 15.9191 10.4573 15.3796C10.4392 15.1141 10.4572 14.7918 10.6243 14.5215C10.8186 14.2071 11.1438 14.0693 11.5 14.0693C11.8548 14.0693 12.2039 14.0706 12.547 14.0718C13.6164 14.0755 14.6269 14.0791 15.5688 14.0446C16.8126 13.9991 17.8968 13.888 18.7892 13.6369C19.6778 13.3868 20.3398 13.0081 20.7844 12.4523C21.2264 11.8997 21.5 11.1137 21.5 9.95695C21.5 5.35789 17.1003 1.5 11.5 1.5C5.89967 1.5 1.5 5.35789 1.5 9.95695ZM11.3927 18.7694C11.3927 18.7695 11.3929 18.768 11.3931 18.7647C11.3927 18.7677 11.3926 18.7693 11.3927 18.7694Z" stroke="white"/>
</g>
<defs>
<clipPath id="clip0_105_16">
<rect width="21" height="18" fill="white" transform="matrix(-1 0 0 1 22 1)"/>
</clipPath>
</defs>
</svg>
