<svg width="21" height="18" viewBox="0 0 21 18" fill="none" xmlns="http://www.w3.org/2000/svg">
<g clip-path="url(#clip0_108_7)">
<path d="M0.5 8.95695C0.5 10.4623 1.5275 11.896 3.08768 13.1837C3.82273 13.7904 5.3051 14.6763 6.84287 15.5179C8.13727 16.2263 9.43649 16.8849 10.2923 17.2913C10.2259 17.0689 10.1332 16.804 10.0289 16.506C9.99089 16.3973 9.95132 16.2842 9.91092 16.1672C9.71204 15.591 9.49385 14.9191 9.45725 14.3796C9.43924 14.1141 9.45723 13.7918 9.62425 13.5215C9.81863 13.2071 10.1438 13.0693 10.5 13.0693C10.8548 13.0693 11.2039 13.0706 11.547 13.0718C12.6164 13.0755 13.6269 13.0791 14.5688 13.0446C15.8126 12.9991 16.8968 12.888 17.7892 12.6369C18.6778 12.3868 19.3398 12.0081 19.7844 11.4523C20.2264 10.8997 20.5 10.1137 20.5 8.95695C20.5 4.35789 16.1003 0.5 10.5 0.5C4.89967 0.5 0.5 4.35789 0.5 8.95695ZM10.3927 17.7694C10.3927 17.7695 10.3929 17.768 10.3931 17.7647C10.3927 17.7677 10.3926 17.7693 10.3927 17.7694Z" stroke="white"/>
</g>
<defs>
<clipPath id="clip0_108_7">
<rect width="21" height="18" fill="white" transform="matrix(-1 0 0 1 21 0)"/>
</clipPath>
</defs>
</svg>
