<svg width="25" height="25" viewBox="0 0 25 25" fill="none" xmlns="http://www.w3.org/2000/svg">
<path d="M2.4446 6.91611C3.48821 5.04106 5.04106 3.48821 6.91611 2.4446C6.0083 2.99812 5.16535 3.66697 4.41616 4.41616C3.66697 5.16535 2.99812 6.0083 2.4446 6.91611ZM1 22.2222V14.8889H1.77778H5.33333V24H2.77778C1.80228 24 1 23.1977 1 22.2222ZM22.2222 24H19.6667V14.8889H23.2222H24V22.2222C24 23.1977 23.1977 24 22.2222 24ZM18.0839 2.4446C19.9589 3.48821 21.5118 5.04107 22.5554 6.91613C22.0019 6.0083 21.333 5.16535 20.5838 4.41616C19.8347 3.66697 18.9917 2.99812 18.0839 2.4446Z" stroke="black" stroke-width="2"/>
</svg>
