<svg width="25" height="25" viewBox="0 0 25 25" fill="none" xmlns="http://www.w3.org/2000/svg">
<path d="M1.27778 13.8889V14.3889H1.77778H5.83333V24.5H2.77778C1.52614 24.5 0.5 23.4739 0.5 22.2222V12.5C0.5 5.87337 5.87337 0.5 12.5 0.5C19.1266 0.5 24.5 5.87337 24.5 12.5V22.2222C24.5 23.4739 23.4739 24.5 22.2222 24.5H19.1667V14.3889H23.2222H23.7222V13.8889V12.5C23.7222 9.65047 22.3097 6.84908 20.2303 4.76971C18.1509 2.69035 15.3495 1.27778 12.5 1.27778C9.65047 1.27778 6.84908 2.69035 4.76971 4.76971C2.69035 6.84908 1.27778 9.65047 1.27778 12.5V13.8889Z" stroke="white"/>
</svg>
