<svg width="27" height="26" viewBox="0 0 27 26" fill="none" xmlns="http://www.w3.org/2000/svg">
<path d="M5 16V18H15L16 16H5Z" fill="white"/>
<path d="M5 12V14H17L18 12H5Z" fill="white"/>
<path d="M5 8V10H19L20 8H5Z" fill="white"/>
<path d="M0.5 1H22C22.4728 1 22.8023 1.00027 23.0603 1.01787C23.3137 1.03516 23.4613 1.0675 23.574 1.11418C23.9416 1.26642 24.2336 1.55843 24.3858 1.92597C24.4325 2.03867 24.4648 2.18627 24.4821 2.43972C24.4997 2.69767 24.5 3.02722 24.5 3.5V22.5C24.5 22.9728 24.4997 23.3023 24.4821 23.5603C24.4648 23.8137 24.4325 23.9613 24.3858 24.074C24.2336 24.4416 23.9416 24.7336 23.574 24.8858C23.4613 24.9325 23.3137 24.9648 23.0603 24.9821C22.8023 24.9997 22.4728 25 22 25H0.5V1Z" stroke="white"/>
<path d="M22 12L17 20V22.6958C17 23.4812 17.864 23.96 18.53 23.5438L21 22L25.5 14.5L24.5 13.5L23 12.5L22 12Z" stroke="white"/>
</svg>
