<svg width="27" height="26" viewBox="0 0 27 26" fill="none" xmlns="http://www.w3.org/2000/svg">
<path d="M5 16V18H15L16 16H5Z" fill="black"/>
<path d="M5 12V14H17L18 12H5Z" fill="black"/>
<path d="M5 8V10H19L20 8H5Z" fill="black"/>
<path d="M1 1.5H22C22.4796 1.5 22.7893 1.50054 23.0262 1.51671C23.2542 1.53227 23.3411 1.55888 23.3827 1.57612C23.6277 1.67761 23.8224 1.87229 23.9239 2.11732C23.9411 2.15893 23.9677 2.24576 23.9833 2.47376C23.9995 2.71074 24 3.02038 24 3.5V22.5C24 22.9796 23.9995 23.2893 23.9833 23.5262C23.9677 23.7542 23.9411 23.8411 23.9239 23.8827C23.8224 24.1277 23.6277 24.3224 23.3827 24.4239C23.3411 24.4411 23.2542 24.4677 23.0262 24.4833C22.7893 24.4995 22.4796 24.5 22 24.5H1V1.5Z" stroke="black" stroke-width="2"/>
<path d="M22 12L17 20V22.6958C17 23.4812 17.864 23.96 18.53 23.5438L21 22L25.5 14.5L24.5 13.5L23 12.5L22 12Z" stroke="black" stroke-width="2"/>
</svg>
