<svg width="20" height="20" viewBox="0 0 20 20" fill="none" xmlns="http://www.w3.org/2000/svg">
<path d="M17 17.2222H3V15.2718L4.86667 13.2673V8.91792C4.86667 6.12595 6.39894 3.7893 8.76339 3.17077C9.75987 2.94018 10.3083 2.94599 11.2367 3.17077C13.6012 3.7893 15.1333 6.12595 15.1333 8.91792V13.2673L17 15.2718V17.2222Z" stroke="white"/>
<path d="M11.75 17.2222C11.75 18.2041 10.9665 19 10 19C9.0335 19 8.25 18.2041 8.25 17.2222" stroke="white"/>
<path d="M11.7667 1C13.5652 1.46313 15.0267 2.61122 16.0001 4.17623M8.23341 1C6.43492 1.46313 4.97346 2.61122 4 4.17623" stroke="white"/>
</svg>
