<svg width="20" height="20" viewBox="0 0 20 20" fill="none" xmlns="http://www.w3.org/2000/svg">
<path d="M6.01317 1.58042C6.83846 1.49957 7.68333 1.69313 8.42864 2.14745C9.32489 2.69377 10.0104 3.57725 10.3405 4.62586C10.6706 5.67456 10.6176 6.80155 10.1985 7.78004C9.77973 8.75759 9.02833 9.5118 8.10155 9.90199C7.17536 10.2919 6.13157 10.2943 5.17542 9.90242L4.98578 10.3651L5.17541 9.90242C4.21793 9.50997 3.41606 8.74916 2.93807 7.76419C2.45995 6.77897 2.34546 5.65041 2.61477 4.60658C2.83758 3.743 3.30804 2.99423 3.94912 2.4547L6.08119 6.12985L7.00031 5.76413L6.01317 1.58042ZM9.11602 10.5037C9.79145 10.0936 10.3602 9.5205 10.7784 8.83296L18.0956 16.5866L16.5272 18.357L9.11602 10.5037Z" stroke="white"/>
</svg>
