<svg width="20" height="20" viewBox="0 0 20 20" fill="none" xmlns="http://www.w3.org/2000/svg">
<path d="M6.01304 1.58042C6.83833 1.49957 7.6832 1.69313 8.42852 2.14745C9.32476 2.69377 10.0103 3.57725 10.3404 4.62586C10.6705 5.67456 10.6175 6.80155 10.1984 7.78004C9.77961 8.75759 9.02821 9.5118 8.10143 9.90199C7.17524 10.2919 6.13145 10.2943 5.17529 9.90242L4.98566 10.3651L5.17529 9.90242C4.21781 9.50997 3.41594 8.74916 2.93794 7.76419C2.45983 6.77897 2.34533 5.65041 2.61465 4.60658C2.83746 3.743 3.30791 2.99423 3.949 2.4547L6.08106 6.12985L7.00019 5.76413L6.01304 1.58042ZM9.1159 10.5037C9.79133 10.0936 10.3601 9.5205 10.7783 8.83296L18.0955 16.5866L16.5271 18.357L9.1159 10.5037Z" stroke="white"/>
</svg>
