<svg width="20" height="20" viewBox="0 0 20 20" fill="none" xmlns="http://www.w3.org/2000/svg">
<path d="M16.0878 4.11935L16.25 3.95711L16.6464 4.35355L17.0429 4.75L16.8964 4.89645L16.8317 4.96118C16.6023 4.66433 16.3537 4.38311 16.0878 4.11935ZM15.0388 4.50818C15.5402 4.94691 15.9827 5.45129 16.3527 6.0078C17.1422 7.19538 17.6023 8.6205 17.6023 10.1546C17.6023 14.2967 14.2444 17.6546 10.1023 17.6546C5.96016 17.6546 2.60229 14.2967 2.60229 10.1546C2.60229 6.01247 5.96016 2.6546 10.1023 2.6546C11.9931 2.6546 13.7195 3.35368 15.0388 4.50818Z" stroke="white"/>
<path d="M8.38794 14.1546L10.1022 10.1546V4.44031" stroke="white"/>
<path d="M6 2C7.22492 1.35681 8.57779 1 10 1C11.4222 1 12.7751 1.35681 14 2" stroke="white" stroke-width="1.5"/>
</svg>
