<svg width="20" height="20" viewBox="0 0 20 20" fill="none" xmlns="http://www.w3.org/2000/svg">
<path d="M16.0878 4.11935L16.2501 3.95711L16.6465 4.35355L17.043 4.75L16.8965 4.89645L16.8318 4.96118C16.6024 4.66433 16.3538 4.38311 16.0878 4.11935ZM15.0389 4.50818C15.5403 4.94691 15.9827 5.45129 16.3527 6.0078C17.1423 7.19538 17.6024 8.6205 17.6024 10.1546C17.6024 14.2967 14.2445 17.6546 10.1024 17.6546C5.96022 17.6546 2.60236 14.2967 2.60236 10.1546C2.60236 6.01247 5.96022 2.6546 10.1024 2.6546C11.9932 2.6546 13.7195 3.35368 15.0389 4.50818Z" stroke="black"/>
<path d="M8.38806 14.1546L10.1023 10.1546V4.44031" stroke="black"/>
<path d="M6 2C7.22492 1.35681 8.57779 1 10 1C11.4222 1 12.7751 1.35681 14 2" stroke="black" stroke-width="1.5"/>
</svg>
