<svg width="20" height="21" viewBox="0 0 20 21" fill="none" xmlns="http://www.w3.org/2000/svg">
<path d="M12.75 10.8065V19C12.75 19.5523 12.3023 20 11.75 20H9.25C8.69772 20 8.25 19.5523 8.25 19V10.8065M12.75 10.8065L15 5H6L8.25 10.8065M12.75 10.8065H8.25" stroke="white"/>
<mask id="path-2-inside-1_72_221" fill="white">
<path d="M10 0V4H11V0H10Z"/>
</mask>
<path d="M10 4H9V5H10V4ZM10 0V-1H9V0H10ZM11 0H12V-1H11V0ZM11 4V5H12V4H11ZM11 4V0H9V4H11ZM10 1H11V-1H10V1ZM10 0V4H12V0H10ZM11 3H10V5H11V3Z" fill="white" mask="url(#path-2-inside-1_72_221)"/>
<mask id="path-4-inside-2_72_221" fill="white">
<path d="M6 0L7 4H8L7 0H6Z"/>
</mask>
<path d="M7 4L6.02986 4.24254L6.21922 5H7V4ZM6 0V-1H4.71922L5.02986 0.242536L6 0ZM7 0L7.97014 -0.242536L7.78078 -1H7V0ZM8 4V5H9.28078L8.97014 3.75746L8 4ZM7.97014 3.75746L6.97014 -0.242536L5.02986 0.242536L6.02986 4.24254L7.97014 3.75746ZM6 1H7V-1H6V1ZM6.02986 0.242536L7.02986 4.24254L8.97014 3.75746L7.97014 -0.242536L6.02986 0.242536ZM8 3H7V5H8V3Z" fill="white" mask="url(#path-4-inside-2_72_221)"/>
<mask id="path-6-inside-3_72_221" fill="white">
<path d="M14 0L13 4H14L15 0H14Z"/>
</mask>
<path d="M13 4L12.0299 3.75746L11.7192 5H13V4ZM14 0V-1H13.2192L13.0299 -0.242536L14 0ZM15 0L15.9701 0.242536L16.2808 -1H15V0ZM14 4V5H14.7808L14.9701 4.24254L14 4ZM13.9701 4.24254L14.9701 0.242536L13.0299 -0.242536L12.0299 3.75746L13.9701 4.24254ZM14 1H15V-1H14V1ZM14.0299 -0.242536L13.0299 3.75746L14.9701 4.24254L15.9701 0.242536L14.0299 -0.242536ZM14 3H13V5H14V3Z" fill="white" mask="url(#path-6-inside-3_72_221)"/>
</svg>
