<svg width="25" height="26" viewBox="0 0 25 26" fill="none" xmlns="http://www.w3.org/2000/svg">
<path d="M5.55277 19.9221L2.85185 21.3436V20.807V19.807H1.85185H1V4H24V19.807H6.01852H5.77143L5.55277 19.9221Z" stroke="black" stroke-width="2"/>
<path d="M9.6875 14H7.5C6.11929 14 5 12.8807 5 11.5V11.3437C5 10.0493 6.04933 9 7.34375 9V9C8.63817 9 9.6875 10.0493 9.6875 11.3437V14ZM9.6875 14H15.3125M15.3125 14H17.5C18.8807 14 20 12.8807 20 11.5V11.3437C20 10.0493 18.9507 9 17.6563 9V9C16.3618 9 15.3125 10.0493 15.3125 11.3437V14Z" stroke="black" stroke-width="2"/>
</svg>
