<svg width="25" height="26" viewBox="0 0 25 26" fill="none" xmlns="http://www.w3.org/2000/svg">
<path d="M8 4V8" stroke="black" stroke-width="2" stroke-linecap="round"/>
<path d="M11 2L11 10" stroke="black" stroke-width="2" stroke-linecap="round"/>
<path d="M17 3L17 9" stroke="black" stroke-width="2" stroke-linecap="round"/>
<path d="M14 1L14 11" stroke="black" stroke-width="2" stroke-linecap="round"/>
<path d="M8.1875 14H4.5C2.567 14 1 15.567 1 17.5V17.5C1 19.433 2.567 21 4.5 21H4.59375C6.57852 21 8.1875 19.391 8.1875 17.4062V14ZM8.1875 14H16.8125M16.8125 14H20.5C22.433 14 24 15.567 24 17.5V17.5C24 19.433 22.433 21 20.5 21H20.4062C18.4215 21 16.8125 19.391 16.8125 17.4062V14Z" stroke="black" stroke-width="2"/>
</svg>
