<svg width="24" height="22" viewBox="0 0 24 22" fill="none" xmlns="http://www.w3.org/2000/svg">
<path d="M5.09259 15.4015L4.94742 15.2619H4.74603H1.65079L0.5 15.2619V6.7381L1.65079 6.7381H4.74603H4.94742L5.09259 6.59851L10.395 1.5H12.5V2.15079V19.8492V20.5H10.395L5.09259 15.4015Z" stroke="white"/>
<path d="M15.5 7L15.969 10.7519C15.9896 10.9167 15.9896 11.0833 15.969 11.2481L15.5 15" stroke="white"/>
<path d="M18 5L18.9452 10.6712C18.9815 10.8889 18.9815 11.1111 18.9452 11.3288L18 17" stroke="white"/>
<path d="M21 3L21.9648 10.2357C21.9881 10.4111 21.9881 10.5889 21.9648 10.7643L21 18" stroke="white"/>
</svg>
