<svg width="23" height="23" viewBox="0 0 23 23" fill="none" xmlns="http://www.w3.org/2000/svg">
<g clip-path="url(#clip0_68_2)">
<path d="M17.5634 13.86L17.7393 14.7328L18.6265 14.6591C19.2041 14.6111 20.0455 14.9493 20.7968 15.704C21.5304 16.4409 22 17.4035 22 18.3125C22 20.3271 20.3219 22 18.2083 22H5.75C3.10937 22 1 19.9052 1 17.375C1 16.221 1.43007 15.437 2.1118 14.884C2.83055 14.301 3.90195 13.9203 5.23053 13.7821L5.75973 13.7271L6.00978 13.2575C7.0373 11.3275 9.10693 10 11.5 10C13.12 10 14.5216 10.3333 15.5635 10.9712C16.5794 11.5932 17.2948 12.5264 17.5634 13.86Z" stroke="black" stroke-width="2"/>
<path d="M15 8C15 11.866 11.866 15 8 15C6.76782 15 5.6128 14.6825 4.6092 14.1256C2.45462 12.93 1 10.6342 1 8C1 4.13401 4.13401 1 8 1C11.866 1 15 4.13401 15 8Z" stroke="black" stroke-width="2"/>
</g>
<defs>
<clipPath id="clip0_68_2">
<rect width="23" height="23" fill="white"/>
</clipPath>
</defs>
</svg>
